<svg width="64" height="48" viewBox="0 0 64 48" fill="none" xmlns="http://www.w3.org/2000/svg">
<g clip-path="url(#clip0)">
<path d="M49.5133 -0.128159L16.4049 13.9255L30.8146 47.8725L63.923 33.8189L49.5133 -0.128159Z" fill="white"/>
<path d="M21.216 35.2078H8.541L6.123 41.0578H-0.351L11.817 13.7578H18.057L30.264 41.0578H23.634L21.216 35.2078ZM19.227 30.4108L14.898 19.9588L10.569 30.4108H19.227Z" fill="white"/>
<path d="M28.237 11.7578H40.639C43.603 11.7578 46.216 12.3298 48.478 13.4738C50.766 14.5918 52.534 16.1778 53.782 18.2318C55.056 20.2858 55.693 22.6778 55.693 25.4078C55.693 28.1378 55.056 30.5298 53.782 32.5838C52.534 34.6378 50.766 36.2368 48.478 37.3808C46.216 38.4988 43.603 39.0578 40.639 39.0578H28.237V11.7578ZM40.327 33.8708C43.057 33.8708 45.228 33.1168 46.84 31.6088C48.478 30.0748 49.297 28.0078 49.297 25.4078C49.297 22.8078 48.478 20.7538 46.84 19.2458C45.228 17.7118 43.057 16.9448 40.327 16.9448H34.555V33.8708H40.327Z" fill="#3CABEE"/>
</g>
<defs>
<clipPath id="clip0">
<rect width="64" height="48" fill="white"/>
</clipPath>
</defs>
</svg>
